<?xml version="1.0" encoding="utf-8"?>
<svg viewBox="77.106 113.873 111.644 79.471" width="111.644" height="79.471" xmlns="http://www.w3.org/2000/svg">
  <g>
    <g transform="matrix(0.689985, 0, 0, -0.689985, 72.944717, 472.34671)" id="g10" style="">
      <g transform="scale(0.1)" id="g12">
        <path id="path90" style="fill-opacity: 1; fill-rule: evenodd; stroke: none; fill: rgb(97, 52, 0);"
              d="M 878.844 5000.574 C 1142.184 5117.684 1405.524 5117.694 1668.854 5000.574 C 1674.774 4997.944 1678.374 4992.414 1678.374 4985.934 L 1678.374 4059.684 C 1678.374 4054.134 1675.794 4049.354 1671.154 4046.304 C 1666.524 4043.244 1661.124 4042.784 1656.024 4044.974 C 1401.244 4154.604 1146.464 4154.594 891.694 4044.974 C 886.584 4042.784 881.184 4043.254 876.554 4046.304 C 871.914 4049.354 869.344 4054.134 869.344 4059.684 L 869.344 4985.934 C 869.344 4992.414 872.934 4997.944 878.844 5000.574"/>
        <path id="path92" style="fill-opacity: 1; fill-rule: evenodd; stroke: none; fill: rgb(186, 99, 0);"
              d="M 909.634 5032.954 C 1048.434 5183.624 1362.224 5200.774 1593.184 5103.254 C 1600.644 5100.094 1605.644 5093.054 1605.644 5085.714 L 1605.644 4157.514 C 1605.644 4152.414 1603.394 4148.404 1599.164 4145.964 C 1594.924 4143.524 1589.894 4143.354 1584.684 4145.454 C 1351.154 4239.554 1050.904 4220.384 909.634 4077.994 L 909.634 5032.954"/>
        <path id="path94" style="fill:#ffffff;fill-opacity:1;fill-rule:evenodd;stroke:none"
              d="M 872.754 5000.714 C 1006.214 5171.044 1300.974 5232.414 1518.414 5173.684 C 1525.504 5171.774 1530.254 5165.564 1530.254 5158.214 L 1530.254 4230.024 C 1530.254 4224.924 1528.114 4220.534 1524.094 4217.404 C 1520.084 4214.264 1515.304 4213.244 1510.354 4214.484 C 1302.704 4266.344 1039.504 4209.164 896.714 4065.534 C 892.044 4060.834 885.364 4059.494 879.244 4062.014 C 873.124 4064.544 869.344 4070.204 869.344 4076.824 L 869.344 4990.834 C 869.344 4994.564 870.444 4997.774 872.754 5000.714"/>
        <path id="path98" style="fill-opacity: 1; fill-rule: evenodd; stroke: none; fill: rgb(186, 99, 0);"
              d="M 859.834 5015.067 C 596.494 5132.177 333.157 5132.187 69.821 5015.067 C 63.903 5012.437 60.31 5006.907 60.31 5000.427 L 60.31 4074.177 C 60.31 4068.627 62.884 4063.847 67.521 4060.797 C 72.161 4057.737 77.56 4057.277 82.657 4059.467 C 337.439 4169.097 592.214 4169.087 846.984 4059.467 C 852.094 4057.277 857.494 4057.747 862.134 4060.797 C 866.764 4063.847 869.344 4068.627 869.344 4074.177 L 869.344 5000.427 C 869.344 5006.907 865.744 5012.437 859.834 5015.067"/>
        <path id="path100" style="fill:#ffffff;fill-opacity:1;fill-rule:evenodd;stroke:none"
              d="M 191.614 4442.484 C 284.255 4468.844 533.584 4525.534 742.964 4444.794 C 749.264 4442.364 753.224 4436.604 753.224 4429.854 L 753.224 4423.724 C 753.224 4418.264 750.734 4413.564 746.234 4410.494 C 741.724 4407.404 736.444 4406.814 731.354 4408.814 C 530.654 4487.394 288.009 4431.014 200.427 4405.844 C 195.431 4404.414 190.521 4405.324 186.368 4408.444 C 182.22 4411.574 179.993 4416.044 179.993 4421.244 L 179.993 4427.074 C 179.993 4434.334 184.63 4440.494 191.614 4442.484 Z M 191.614 4560.854 C 184.63 4558.864 179.993 4552.704 179.993 4545.444 L 179.993 4539.614 C 179.993 4534.414 182.22 4529.944 186.368 4526.814 C 190.521 4523.694 195.431 4522.784 200.427 4524.214 C 288.009 4549.394 530.654 4605.754 731.354 4527.184 C 736.444 4525.194 741.724 4525.784 746.234 4528.864 C 750.734 4531.944 753.224 4536.634 753.224 4542.094 L 753.224 4548.224 C 753.224 4554.974 749.264 4560.744 742.964 4563.164 C 533.584 4643.894 284.255 4587.204 191.614 4560.854 Z M 191.614 4679.224 C 284.255 4705.584 533.584 4762.264 742.964 4681.544 C 749.264 4679.104 753.224 4673.344 753.224 4666.594 L 753.224 4660.464 C 753.224 4655.004 750.734 4650.314 746.234 4647.224 C 741.724 4644.154 736.444 4643.564 731.354 4645.544 C 530.654 4724.124 288.009 4667.764 200.427 4642.584 C 195.431 4641.154 190.521 4642.064 186.368 4645.184 C 182.22 4648.314 179.993 4652.784 179.993 4657.984 L 179.993 4663.814 C 179.993 4671.074 184.63 4677.224 191.614 4679.224 Z M 191.614 4797.594 C 184.63 4795.604 179.993 4789.454 179.993 4782.184 L 179.993 4776.354 C 179.993 4771.164 182.22 4766.684 186.368 4763.554 C 190.521 4760.434 195.431 4759.524 200.427 4760.954 C 288.009 4786.124 530.654 4842.494 731.354 4763.914 C 736.444 4761.934 741.724 4762.524 746.234 4765.604 C 750.734 4768.684 753.224 4773.374 753.224 4778.834 L 753.224 4784.964 C 753.224 4791.714 749.264 4797.474 742.964 4799.914 C 533.584 4880.644 284.255 4823.954 191.614 4797.594 Z M 191.614 4324.114 C 247.997 4340.154 362.435 4367.414 490.574 4368.104 C 495.004 4368.134 498.824 4366.574 501.964 4363.454 C 505.094 4360.324 506.684 4356.524 506.684 4352.094 L 506.684 4346.674 C 506.684 4337.884 499.534 4330.704 490.744 4330.664 C 365.97 4330.034 254.087 4302.894 200.427 4287.474 C 195.431 4286.034 190.521 4286.954 186.368 4290.084 C 182.22 4293.204 179.993 4297.674 179.993 4302.874 L 179.993 4308.704 C 179.993 4315.964 184.63 4322.124 191.614 4324.114 Z M 329.954 4946.334 C 446.704 4964.874 603.674 4971.984 742.964 4918.284 C 749.264 4915.854 753.224 4910.094 753.224 4903.334 L 753.224 4897.204 C 753.224 4891.744 750.734 4887.054 746.234 4883.974 C 741.724 4880.894 736.444 4880.304 731.354 4882.294 C 598.584 4934.284 447.444 4927.194 334.997 4909.164 C 330.2 4908.394 325.767 4909.634 322.067 4912.794 C 318.376 4915.934 316.442 4920.124 316.442 4924.974 L 316.442 4930.514 C 316.442 4938.454 322.11 4945.094 329.954 4946.334 L 329.954 4946.334"/>
      </g>
    </g>
    <path
      d="M 139.698 155.2 L 139.698 155.4 L 147.818 160.85 L 147.078 163.48 L 135.358 155.4 L 135.358 155.2 L 147.038 147.24 L 147.778 149.83 L 139.698 155.2 ZM 154.703 165.16 L 154.703 148.23 L 151.553 148.23 L 151.553 146.71 L 154.703 146.34 C 154.703 144.807 154.753 143.493 154.853 142.4 C 154.946 141.313 155.073 140.393 155.233 139.64 C 155.399 138.887 155.586 138.27 155.793 137.79 C 155.999 137.31 156.196 136.92 156.383 136.62 C 156.903 135.86 157.546 135.337 158.313 135.05 C 159.079 134.757 159.873 134.61 160.693 134.61 C 160.799 134.61 160.989 134.62 161.263 134.64 C 161.536 134.653 161.843 134.68 162.183 134.72 C 162.529 134.76 162.879 134.827 163.233 134.92 C 163.586 135.02 163.929 135.15 164.263 135.31 L 163.563 137.73 C 163.483 137.73 163.289 137.683 162.983 137.59 C 162.683 137.49 162.349 137.38 161.983 137.26 C 161.616 137.133 161.219 137.017 160.793 136.91 C 160.366 136.803 159.989 136.75 159.663 136.75 C 159.256 136.75 158.916 136.867 158.643 137.1 C 158.369 137.327 158.156 137.707 158.003 138.24 C 157.856 138.773 157.746 139.48 157.673 140.36 C 157.606 141.233 157.573 142.31 157.573 143.59 L 157.573 146.3 L 162.003 146.3 L 162.003 148.23 L 157.573 148.23 L 157.573 165.16 L 154.703 165.16 ZM 173.558 155.4 L 173.558 155.2 L 165.488 149.83 L 166.228 147.24 L 177.908 155.2 L 177.908 155.4 L 166.178 163.48 L 165.448 160.85 L 173.558 155.4 Z"
      transform="matrix(1, 0, 0, 1, 0, 0)" style="fill: rgb(186, 99, 0); white-space: pre;"/>
  </g>
</svg>
